<svg width="20" height="20" viewBox="0 0 20 20" fill="none" xmlns="http://www.w3.org/2000/svg">
<path d="M7.79515 17.5C8.38276 18.0186 9.15463 18.3333 10 18.3333C10.8454 18.3333 11.6172 18.0186 12.2049 17.5M15 6.66666C15 5.34058 14.4732 4.06881 13.5355 3.13113C12.5979 2.19345 11.3261 1.66666 10 1.66666C8.67392 1.66666 7.40215 2.19345 6.46447 3.13113C5.52678 4.06881 5 5.34058 5 6.66666C5 9.24182 4.35039 11.005 3.62472 12.1712C3.0126 13.1549 2.70655 13.6468 2.71777 13.784C2.7302 13.9359 2.76238 13.9938 2.88481 14.0846C2.99538 14.1667 3.49382 14.1667 4.49071 14.1667H15.5093C16.5062 14.1667 17.0046 14.1667 17.1152 14.0846C17.2376 13.9938 17.2698 13.9359 17.2822 13.784C17.2935 13.6468 16.9874 13.1549 16.3753 12.1712C15.6496 11.005 15 9.24182 15 6.66666Z" stroke="#777879" stroke-width="1.66667" stroke-linecap="round" stroke-linejoin="round"/>
</svg>
