<svg width="16" height="16" viewBox="0 0 16 16" fill="none" xmlns="http://www.w3.org/2000/svg">
<g clip-path="url(#clip0_3770_405)">
<path d="M9.01958 5.56792C8.63796 5.83998 8.17096 6.00001 7.66659 6.00001C6.37792 6.00001 5.33325 4.95534 5.33325 3.66668C5.33325 2.37801 6.37792 1.33334 7.66659 1.33334C8.50191 1.33334 9.23471 1.77229 9.64692 2.4321M3.99992 13.3914H5.74011C5.967 13.3914 6.19251 13.4184 6.41246 13.4724L8.25118 13.9193C8.65015 14.0165 9.06577 14.0259 9.4689 13.9476L11.5019 13.5521C12.0389 13.4475 12.533 13.1903 12.9201 12.8137L14.3585 11.4145C14.7693 11.0156 14.7693 10.3683 14.3585 9.96872C13.9887 9.60897 13.4031 9.56847 12.9847 9.87355L11.3083 11.0966C11.0682 11.2721 10.7761 11.3666 10.4757 11.3666H8.85692L9.8873 11.3665C10.4681 11.3665 10.9385 10.9089 10.9385 10.344V10.1394C10.9385 9.67034 10.6103 9.26132 10.1426 9.14792L8.55231 8.76117C8.29351 8.6984 8.02845 8.66668 7.76201 8.66668C7.11881 8.66668 5.95451 9.19922 5.95451 9.19922L3.99992 10.0166M13.3333 4.33334C13.3333 5.62201 12.2886 6.66668 10.9999 6.66668C9.71125 6.66668 8.66659 5.62201 8.66659 4.33334C8.66659 3.04468 9.71125 2.00001 10.9999 2.00001C12.2886 2.00001 13.3333 3.04468 13.3333 4.33334ZM1.33325 9.73334L1.33325 13.6C1.33325 13.9734 1.33325 14.1601 1.40591 14.3027C1.46983 14.4281 1.57182 14.5301 1.69726 14.594C1.83987 14.6667 2.02655 14.6667 2.39992 14.6667H2.93325C3.30662 14.6667 3.4933 14.6667 3.63591 14.594C3.76135 14.5301 3.86334 14.4281 3.92726 14.3027C3.99992 14.1601 3.99992 13.9734 3.99992 13.6V9.73334C3.99992 9.35998 3.99992 9.17329 3.92726 9.03068C3.86334 8.90524 3.76135 8.80326 3.63591 8.73934C3.4933 8.66668 3.30662 8.66668 2.93325 8.66668L2.39992 8.66668C2.02655 8.66668 1.83987 8.66668 1.69726 8.73934C1.57182 8.80325 1.46983 8.90524 1.40591 9.03068C1.33325 9.17329 1.33325 9.35998 1.33325 9.73334Z" stroke="#A5A5A6" stroke-width="1.33333" stroke-linecap="round" stroke-linejoin="round"/>
</g>
<defs>
<clipPath id="clip0_3770_405">
<rect width="16" height="16" fill="white"/>
</clipPath>
</defs>
</svg>
