<svg width="16" height="16" viewBox="0 0 16 16" fill="none" xmlns="http://www.w3.org/2000/svg">
<path d="M8.66659 3.33333C8.66659 4.06971 7.02496 4.66667 4.99992 4.66667C2.97487 4.66667 1.33325 4.06971 1.33325 3.33333M8.66659 3.33333C8.66659 2.59695 7.02496 2 4.99992 2C2.97487 2 1.33325 2.59695 1.33325 3.33333M8.66659 3.33333V4.33333M1.33325 3.33333V11.3333C1.33325 12.0697 2.97487 12.6667 4.99992 12.6667M4.99992 7.33333C4.88756 7.33333 4.77637 7.3315 4.66658 7.3279C2.79775 7.26666 1.33325 6.69552 1.33325 6M4.99992 10C2.97487 10 1.33325 9.40305 1.33325 8.66667M14.6666 7.66667C14.6666 8.40305 13.025 9 10.9999 9C8.97487 9 7.33325 8.40305 7.33325 7.66667M14.6666 7.66667C14.6666 6.93029 13.025 6.33333 10.9999 6.33333C8.97487 6.33333 7.33325 6.93029 7.33325 7.66667M14.6666 7.66667V12.6667C14.6666 13.403 13.025 14 10.9999 14C8.97487 14 7.33325 13.403 7.33325 12.6667V7.66667M14.6666 10.1667C14.6666 10.903 13.025 11.5 10.9999 11.5C8.97487 11.5 7.33325 10.903 7.33325 10.1667" stroke="#A5A5A6" stroke-width="1.33333" stroke-linecap="round" stroke-linejoin="round"/>
</svg>
