<svg width="16" height="16" viewBox="0 0 16 16" fill="none" xmlns="http://www.w3.org/2000/svg">
<g clip-path="url(#clip0_3824_337)">
<path d="M3.9987 3.99998L5.33203 2.66665M5.33203 2.66665L3.9987 1.33331M5.33203 2.66665H3.9987C2.52594 2.66665 1.33203 3.86055 1.33203 5.33331M11.9987 12L10.6654 13.3333M10.6654 13.3333L11.9987 14.6666M10.6654 13.3333H11.9987C13.4715 13.3333 14.6654 12.1394 14.6654 10.6666M8.94348 8.94476C9.46498 9.19385 10.0489 9.33331 10.6654 9.33331C12.8745 9.33331 14.6654 7.54245 14.6654 5.33331C14.6654 3.12417 12.8745 1.33331 10.6654 1.33331C8.45623 1.33331 6.66536 3.12417 6.66536 5.33331C6.66536 5.94979 6.80482 6.53369 7.05392 7.0552M9.33203 10.6666C9.33203 12.8758 7.54117 14.6666 5.33203 14.6666C3.12289 14.6666 1.33203 12.8758 1.33203 10.6666C1.33203 8.45751 3.12289 6.66665 5.33203 6.66665C7.54117 6.66665 9.33203 8.45751 9.33203 10.6666Z" stroke="#A5A5A6" stroke-width="1.33333" stroke-linecap="round" stroke-linejoin="round"/>
</g>
<defs>
<clipPath id="clip0_3824_337">
<rect width="16" height="16" fill="white"/>
</clipPath>
</defs>
</svg>
