<svg width="26" height="34" viewBox="0 0 26 34" fill="none" xmlns="http://www.w3.org/2000/svg">
<path d="M16.7908 1.70821C16.7908 1.14045 16.33 0.676813 15.7634 0.712554C13.9717 0.825569 12.2084 1.23363 10.5454 1.92246C8.56543 2.74261 6.76635 3.94471 5.25091 5.46015C3.73548 6.97558 2.53337 8.77467 1.71322 10.7547C0.893071 12.7347 0.470947 14.8569 0.470947 17C0.470947 19.1431 0.893072 21.2653 1.71322 23.2453C2.53337 25.2253 3.73548 27.0244 5.25091 28.5398C6.76635 30.0553 8.56543 31.2574 10.5454 32.0775C12.2084 32.7664 13.9717 33.1744 15.7634 33.2874C16.33 33.3232 16.7908 32.8595 16.7908 32.2918L16.7908 1.70821Z" fill="url(#paint0_linear_3770_389)"/>
<path d="M25.5291 5.04961C25.5291 4.48186 25.068 4.01719 24.5022 4.06392C21.5041 4.31151 18.676 5.63716 16.5335 7.82298C14.1477 10.257 12.8074 13.5582 12.8074 17.0003C12.8074 20.4425 14.1477 23.7437 16.5335 26.1777C18.676 28.3635 21.5041 29.6892 24.5022 29.9368C25.068 29.9835 25.5291 29.5188 25.5291 28.9511V5.04961Z" fill="url(#paint1_linear_3770_389)"/>
<defs>
<linearGradient id="paint0_linear_3770_389" x1="0.273047" y1="36.7495" x2="25.8138" y2="-3.39812" gradientUnits="userSpaceOnUse">
<stop stop-color="#0194FF"/>
<stop offset="1" stop-color="#1FF8D1"/>
</linearGradient>
<linearGradient id="paint1_linear_3770_389" x1="12.6531" y1="32.6886" x2="33.1014" y2="1.14603" gradientUnits="userSpaceOnUse">
<stop stop-color="#0194FF"/>
<stop offset="1" stop-color="#1FF8D1"/>
</linearGradient>
</defs>
</svg>
