<svg width="155" height="34" viewBox="0 0 155 34" fill="none" xmlns="http://www.w3.org/2000/svg">
<path d="M16.3198 1.70828C16.3198 1.14052 15.8591 0.67689 15.2925 0.71263C13.5007 0.825646 11.7375 1.23371 10.0745 1.92253C8.09448 2.74268 6.2954 3.94479 4.77996 5.46023C3.26453 6.97566 2.06242 8.77474 1.24227 10.7548C0.422124 12.7348 -1.8736e-07 14.8569 0 17.0001C1.8736e-07 19.1432 0.422125 21.2654 1.24227 23.2454C2.06242 25.2254 3.26453 27.0245 4.77997 28.5399C6.2954 30.0554 8.09448 31.2575 10.0745 32.0776C11.7375 32.7664 13.5007 33.1745 15.2925 33.2875C15.8591 33.3233 16.3198 32.8596 16.3198 32.2919L16.3198 1.70828Z" fill="url(#paint0_linear_1546_7799)"/>
<path d="M25.0577 5.04973C25.0577 4.48197 24.5966 4.0173 24.0307 4.06403C21.0327 4.31163 18.2046 5.63727 16.0621 7.8231C13.6763 10.2571 12.3359 13.5583 12.3359 17.0005C12.3359 20.4426 13.6763 23.7438 16.062 26.1778C18.2046 28.3636 21.0327 29.6893 24.0307 29.9369C24.5966 29.9836 25.0577 29.5189 25.0577 28.9512V5.04973Z" fill="url(#paint1_linear_1546_7799)"/>
<path d="M44.798 20.3691L42.9707 22.1721V25.5099H39.1699V7.43188H42.9707V17.6647L48.5257 12.4021H53.0574L47.5998 17.9571L53.5446 25.5099H48.9399L44.798 20.3691Z" fill="white"/>
<path d="M67.9856 12.4021V25.5099H64.3554V23.9994C63.4133 25.1364 62.0489 25.7048 60.2622 25.7048C59.0278 25.7048 57.9071 25.4287 56.9 24.8765C55.9092 24.3242 55.1296 23.5365 54.5611 22.5132C53.9926 21.4899 53.7083 20.3042 53.7083 18.956C53.7083 17.6079 53.9926 16.4222 54.5611 15.3989C55.1296 14.3756 55.9092 13.5878 56.9 13.0356C57.9071 12.4833 59.0278 12.2072 60.2622 12.2072C61.9352 12.2072 63.2428 12.7351 64.1848 13.7909V12.4021H67.9856ZM60.9201 22.5863C61.8784 22.5863 62.6743 22.2614 63.3077 21.6117C63.9412 20.9458 64.2579 20.0605 64.2579 18.956C64.2579 17.8515 63.9412 16.9744 63.3077 16.3247C62.6743 15.6588 61.8784 15.3258 60.9201 15.3258C59.9455 15.3258 59.1415 15.6588 58.508 16.3247C57.8746 16.9744 57.5578 17.8515 57.5578 18.956C57.5578 20.0605 57.8746 20.9458 58.508 21.6117C59.1415 22.2614 59.9455 22.5863 60.9201 22.5863Z" fill="white"/>
<path d="M79.4715 12.2072C81.0958 12.2072 82.4033 12.6945 83.3941 13.6691C84.4011 14.6436 84.9047 16.0892 84.9047 18.0058V25.5099H81.1039V18.5906C81.1039 17.551 80.8765 16.7795 80.4217 16.276C79.9669 15.7562 79.3091 15.4964 78.4482 15.4964C77.4899 15.4964 76.7265 15.7968 76.158 16.3978C75.5895 16.9826 75.3053 17.8597 75.3053 19.0291V25.5099H71.5045V12.4021H75.1347V13.9371C75.6382 13.3848 76.2636 12.9625 77.0107 12.6701C77.7579 12.3615 78.5782 12.2072 79.4715 12.2072Z" fill="white"/>
<path d="M101.795 12.4021V25.5099H98.1651V23.9994C97.223 25.1364 95.8587 25.7048 94.072 25.7048C92.8375 25.7048 91.7168 25.4287 90.7097 24.8765C89.7189 24.3242 88.9393 23.5365 88.3708 22.5132C87.8023 21.4899 87.5181 20.3042 87.5181 18.956C87.5181 17.6079 87.8023 16.4222 88.3708 15.3989C88.9393 14.3756 89.7189 13.5878 90.7097 13.0356C91.7168 12.4833 92.8375 12.2072 94.072 12.2072C95.745 12.2072 97.0525 12.7351 97.9946 13.7909V12.4021H101.795ZM94.7298 22.5863C95.6881 22.5863 96.484 22.2614 97.1175 21.6117C97.7509 20.9458 98.0677 20.0605 98.0677 18.956C98.0677 17.8515 97.7509 16.9744 97.1175 16.3247C96.484 15.6588 95.6881 15.3258 94.7298 15.3258C93.7552 15.3258 92.9512 15.6588 92.3178 16.3247C91.6843 16.9744 91.3676 17.8515 91.3676 18.956C91.3676 20.0605 91.6843 20.9458 92.3178 21.6117C92.9512 22.2614 93.7552 22.5863 94.7298 22.5863Z" fill="white"/>
<path d="M109.578 25.6318C108.425 25.6318 107.531 25.3069 106.898 24.6572C106.281 24.0075 105.972 23.106 105.972 21.9528V7.43188H107.702V21.8066C107.702 22.57 107.881 23.1547 108.238 23.5608C108.595 23.9506 109.131 24.1455 109.846 24.1455C110.301 24.1455 110.691 24.0725 111.015 23.9263L111.137 25.3637C110.634 25.5424 110.114 25.6318 109.578 25.6318Z" fill="white"/>
<path d="M124.947 12.6945V25.5099H123.291V22.9761C122.771 23.8369 122.081 24.4948 121.22 24.9496C120.375 25.4044 119.417 25.6318 118.345 25.6318C117.143 25.6318 116.055 25.3556 115.08 24.8034C114.105 24.2511 113.342 23.4796 112.79 22.4888C112.238 21.498 111.961 20.3691 111.961 19.1022C111.961 17.8353 112.238 16.7064 112.79 15.7156C113.342 14.7248 114.105 13.9614 115.08 13.4254C116.055 12.8732 117.143 12.597 118.345 12.597C119.384 12.597 120.318 12.8163 121.147 13.2549C121.991 13.6772 122.682 14.3025 123.218 15.1309V12.6945H124.947ZM118.491 24.0968C119.384 24.0968 120.188 23.8938 120.903 23.4877C121.634 23.0654 122.202 22.4726 122.608 21.7092C123.031 20.9458 123.242 20.0768 123.242 19.1022C123.242 18.1277 123.031 17.2587 122.608 16.4953C122.202 15.7319 121.634 15.1471 120.903 14.7411C120.188 14.3188 119.384 14.1076 118.491 14.1076C117.581 14.1076 116.761 14.3188 116.03 14.7411C115.315 15.1471 114.747 15.7319 114.325 16.4953C113.919 17.2587 113.716 18.1277 113.716 19.1022C113.716 20.0768 113.919 20.9458 114.325 21.7092C114.747 22.4726 115.315 23.0654 116.03 23.4877C116.761 23.8938 117.581 24.0968 118.491 24.0968Z" fill="white"/>
<path d="M136.368 12.597C137.57 12.597 138.658 12.8732 139.632 13.4254C140.607 13.9614 141.37 14.7248 141.923 15.7156C142.475 16.7064 142.751 17.8353 142.751 19.1022C142.751 20.3691 142.475 21.498 141.923 22.4888C141.37 23.4796 140.607 24.2511 139.632 24.8034C138.658 25.3556 137.57 25.6318 136.368 25.6318C135.296 25.6318 134.329 25.4044 133.468 24.9496C132.624 24.4948 131.941 23.8369 131.422 22.9761V25.5099H129.765V7.43188H131.495V15.1309C132.031 14.3025 132.713 13.6772 133.541 13.2549C134.386 12.8163 135.328 12.597 136.368 12.597ZM136.246 24.0968C137.139 24.0968 137.951 23.8938 138.682 23.4877C139.413 23.0654 139.982 22.4726 140.388 21.7092C140.81 20.9458 141.021 20.0768 141.021 19.1022C141.021 18.1277 140.81 17.2587 140.388 16.4953C139.982 15.7319 139.413 15.1471 138.682 14.7411C137.951 14.3188 137.139 14.1076 136.246 14.1076C135.336 14.1076 134.516 14.3188 133.785 14.7411C133.07 15.1471 132.502 15.7319 132.08 16.4953C131.673 17.2587 131.47 18.1277 131.47 19.1022C131.47 20.0768 131.673 20.9458 132.08 21.7092C132.502 22.4726 133.07 23.0654 133.785 23.4877C134.516 23.8938 135.336 24.0968 136.246 24.0968Z" fill="white"/>
<path d="M149.713 25.6318C148.673 25.6318 147.674 25.4856 146.716 25.1932C145.774 24.8846 145.035 24.5029 144.499 24.0481L145.278 22.6837C145.814 23.106 146.488 23.4552 147.301 23.7314C148.113 23.9912 148.957 24.1212 149.834 24.1212C151.004 24.1212 151.865 23.9425 152.417 23.5852C152.985 23.2116 153.27 22.6918 153.27 22.0259C153.27 21.5549 153.115 21.1894 152.807 20.9295C152.498 20.6534 152.108 20.4504 151.637 20.3204C151.166 20.1742 150.541 20.0362 149.761 19.9062C148.722 19.7113 147.885 19.5164 147.252 19.3215C146.618 19.1103 146.074 18.7611 145.619 18.2738C145.181 17.7866 144.962 17.1125 144.962 16.2516C144.962 15.1796 145.408 14.3025 146.302 13.6203C147.195 12.9381 148.438 12.597 150.029 12.597C150.858 12.597 151.686 12.7107 152.514 12.9381C153.343 13.1493 154.025 13.4335 154.561 13.7909L153.806 15.1796C152.75 14.4487 151.491 14.0832 150.029 14.0832C148.925 14.0832 148.088 14.2782 147.52 14.668C146.968 15.0578 146.691 15.5694 146.691 16.2029C146.691 16.6902 146.846 17.08 147.154 17.3724C147.479 17.6647 147.877 17.884 148.348 18.0302C148.819 18.1601 149.469 18.2982 150.297 18.4444C151.321 18.6393 152.141 18.8342 152.758 19.0291C153.375 19.224 153.903 19.557 154.342 20.028C154.78 20.4991 155 21.1488 155 21.9772C155 23.0979 154.528 23.9912 153.586 24.6572C152.661 25.3069 151.369 25.6318 149.713 25.6318Z" fill="white"/>
<defs>
<linearGradient id="paint0_linear_1546_7799" x1="-0.197901" y1="36.7496" x2="25.3428" y2="-3.39804" gradientUnits="userSpaceOnUse">
<stop stop-color="#0194FF"/>
<stop offset="1" stop-color="#1FF8D1"/>
</linearGradient>
<linearGradient id="paint1_linear_1546_7799" x1="12.1817" y1="32.6888" x2="32.63" y2="1.14615" gradientUnits="userSpaceOnUse">
<stop stop-color="#0194FF"/>
<stop offset="1" stop-color="#1FF8D1"/>
</linearGradient>
</defs>
</svg>
