<svg width="173" height="37" viewBox="0 0 173 37" fill="none" xmlns="http://www.w3.org/2000/svg">
<g clip-path="url(#clip0_67_14089)">
<path d="M18.9953 2.06402C18.9953 1.43664 18.4862 0.924316 17.8601 0.96381C15.8802 1.08869 13.9318 1.53961 12.0942 2.30077C9.90619 3.20705 7.91817 4.53539 6.2436 6.20997C4.56902 7.88455 3.24067 9.87256 2.3344 12.0605C1.42812 14.2485 0.96167 16.5935 0.96167 18.9617C0.96167 21.3299 1.42812 23.6749 2.3344 25.8629C3.24067 28.0508 4.56902 30.0388 6.2436 31.7134C7.91818 33.388 9.90619 34.7163 12.0942 35.6226C13.9318 36.3838 15.8802 36.8347 17.8601 36.9596C18.4862 36.9991 18.9953 36.4867 18.9953 35.8593V2.06402Z" fill="url(#paint0_linear_67_14089)"/>
<path d="M28.651 5.75588C28.651 5.1285 28.1414 4.61503 27.5162 4.66667C24.2033 4.94026 21.0782 6.40512 18.7107 8.82049C16.0743 11.51 14.5933 15.1579 14.5933 18.9616C14.5933 22.7652 16.0743 26.4131 18.7107 29.1027C21.0782 31.518 24.2033 32.9829 27.5162 33.2565C28.1414 33.3081 28.651 32.7947 28.651 32.1673V5.75588Z" fill="url(#paint1_linear_67_14089)"/>
<path d="M50.4645 22.6843L48.4453 24.6765V28.3649H44.2454V8.38843H48.4453V19.6959L54.5837 13.8806H59.5912L53.5606 20.019L60.1297 28.3649H55.0413L50.4645 22.6843Z" fill="white"/>
<path d="M76.0872 13.8807V28.365H72.0756V26.6958C71.0346 27.9522 69.527 28.5804 67.5527 28.5804C66.1887 28.5804 64.9501 28.2753 63.8373 27.665C62.7425 27.0548 61.881 26.1843 61.2528 25.0536C60.6246 23.9228 60.3105 22.6126 60.3105 21.1229C60.3105 19.6332 60.6246 18.3229 61.2528 17.1922C61.881 16.0614 62.7425 15.1909 63.8373 14.5807C64.9501 13.9705 66.1887 13.6653 67.5527 13.6653C69.4014 13.6653 70.8462 14.2487 71.8872 15.4153V13.8807H76.0872ZM68.2795 25.1343C69.3385 25.1343 70.218 24.7754 70.9179 24.0574C71.6179 23.3215 71.9679 22.3434 71.9679 21.1229C71.9679 19.9024 71.6179 18.9332 70.9179 18.2152C70.218 17.4794 69.3385 17.1114 68.2795 17.1114C67.2026 17.1114 66.3142 17.4794 65.6143 18.2152C64.9143 18.9332 64.5642 19.9024 64.5642 21.1229C64.5642 22.3434 64.9143 23.3215 65.6143 24.0574C66.3142 24.7754 67.2026 25.1343 68.2795 25.1343Z" fill="white"/>
<path d="M88.7792 13.6653C90.5741 13.6653 92.0189 14.2038 93.1138 15.2807C94.2266 16.3576 94.783 17.955 94.783 20.0729V28.365H90.583V20.719C90.583 19.5703 90.3318 18.7178 89.8292 18.1614C89.3267 17.5871 88.5998 17.2999 87.6485 17.2999C86.5895 17.2999 85.746 17.6319 85.1178 18.296C84.4896 18.9421 84.1755 19.9114 84.1755 21.2036V28.365H79.9756V13.8807H83.987V15.5768C84.5434 14.9666 85.2344 14.4999 86.0601 14.1769C86.8857 13.8358 87.7921 13.6653 88.7792 13.6653Z" fill="white"/>
<path d="M113.448 13.8807V28.365H109.436V26.6958C108.395 27.9522 106.888 28.5804 104.913 28.5804C103.549 28.5804 102.311 28.2753 101.198 27.665C100.103 27.0548 99.2414 26.1843 98.6132 25.0536C97.985 23.9228 97.6709 22.6126 97.6709 21.1229C97.6709 19.6332 97.985 18.3229 98.6132 17.1922C99.2414 16.0614 100.103 15.1909 101.198 14.5807C102.311 13.9705 103.549 13.6653 104.913 13.6653C106.762 13.6653 108.207 14.2487 109.248 15.4153V13.8807H113.448ZM105.64 25.1343C106.699 25.1343 107.579 24.7754 108.279 24.0574C108.979 23.3215 109.329 22.3434 109.329 21.1229C109.329 19.9024 108.979 18.9332 108.279 18.2152C107.579 17.4794 106.699 17.1114 105.64 17.1114C104.563 17.1114 103.675 17.4794 102.975 18.2152C102.275 18.9332 101.925 19.9024 101.925 21.1229C101.925 22.3434 102.275 23.3215 102.975 24.0574C103.675 24.7754 104.563 25.1343 105.64 25.1343Z" fill="white"/>
<path d="M122.048 28.4995C120.773 28.4995 119.786 28.1406 119.086 27.4226C118.404 26.7047 118.063 25.7086 118.063 24.4342V8.38843H119.975V24.2727C119.975 25.1163 120.172 25.7624 120.567 26.2111C120.962 26.6419 121.554 26.8573 122.344 26.8573C122.846 26.8573 123.277 26.7765 123.636 26.615L123.771 28.2034C123.214 28.4008 122.64 28.4995 122.048 28.4995Z" fill="white"/>
<path d="M139.031 14.2036V28.3648H137.2V25.5649C136.626 26.5161 135.863 27.2431 134.912 27.7456C133.979 28.2482 132.92 28.4994 131.735 28.4994C130.407 28.4994 129.204 28.1943 128.128 27.5841C127.051 26.9738 126.207 26.1213 125.597 25.0264C124.987 23.9316 124.681 22.6842 124.681 21.2842C124.681 19.8842 124.987 18.6368 125.597 17.542C126.207 16.4471 127.051 15.6036 128.128 15.0113C129.204 14.401 130.407 14.0959 131.735 14.0959C132.884 14.0959 133.916 14.3382 134.831 14.8228C135.765 15.2895 136.527 15.9805 137.12 16.8958V14.2036H139.031ZM131.897 26.8033C132.884 26.8033 133.772 26.579 134.562 26.1303C135.37 25.6636 135.998 25.0085 136.447 24.1649C136.913 23.3213 137.147 22.3611 137.147 21.2842C137.147 20.2073 136.913 19.2471 136.447 18.4035C135.998 17.5599 135.37 16.9138 134.562 16.4651C133.772 15.9984 132.884 15.7651 131.897 15.7651C130.892 15.7651 129.985 15.9984 129.177 16.4651C128.388 16.9138 127.76 17.5599 127.293 18.4035C126.844 19.2471 126.62 20.2073 126.62 21.2842C126.62 22.3611 126.844 23.3213 127.293 24.1649C127.76 25.0085 128.388 25.6636 129.177 26.1303C129.985 26.579 130.892 26.8033 131.897 26.8033Z" fill="white"/>
<path d="M151.651 14.096C152.979 14.096 154.181 14.4011 155.258 15.0114C156.335 15.6037 157.179 16.4472 157.789 17.5421C158.399 18.6369 158.704 19.8843 158.704 21.2843C158.704 22.6843 158.399 23.9317 157.789 25.0265C157.179 26.1214 156.335 26.9739 155.258 27.5842C154.181 28.1944 152.979 28.4995 151.651 28.4995C150.466 28.4995 149.398 28.2483 148.447 27.7457C147.514 27.2432 146.76 26.5162 146.185 25.565V28.3649H144.355V8.38843H146.266V16.8959C146.858 15.9806 147.612 15.2896 148.528 14.8229C149.461 14.3383 150.502 14.096 151.651 14.096ZM151.516 26.8034C152.503 26.8034 153.401 26.5791 154.208 26.1304C155.016 25.6637 155.644 25.0086 156.093 24.165C156.559 23.3214 156.793 22.3612 156.793 21.2843C156.793 20.2074 156.559 19.2472 156.093 18.4036C155.644 17.56 155.016 16.9139 154.208 16.4652C153.401 15.9985 152.503 15.7652 151.516 15.7652C150.511 15.7652 149.605 15.9985 148.797 16.4652C148.007 16.9139 147.379 17.56 146.912 18.4036C146.464 19.2472 146.239 20.2074 146.239 21.2843C146.239 22.3612 146.464 23.3214 146.912 24.165C147.379 25.0086 148.007 25.6637 148.797 26.1304C149.605 26.5791 150.511 26.8034 151.516 26.8034Z" fill="white"/>
<path d="M166.397 28.4994C165.248 28.4994 164.144 28.3379 163.086 28.0148C162.045 27.6738 161.228 27.252 160.636 26.7495L161.497 25.2418C162.089 25.7085 162.834 26.0944 163.732 26.3995C164.629 26.6867 165.562 26.8302 166.532 26.8302C167.824 26.8302 168.775 26.6328 169.385 26.238C170.014 25.8251 170.328 25.2508 170.328 24.5149C170.328 23.9944 170.157 23.5906 169.816 23.3034C169.475 22.9983 169.044 22.7739 168.524 22.6303C168.003 22.4688 167.312 22.3162 166.451 22.1727C165.302 21.9573 164.378 21.7419 163.678 21.5265C162.978 21.2932 162.377 20.9073 161.874 20.3688C161.389 19.8304 161.147 19.0855 161.147 18.1343C161.147 16.9497 161.641 15.9805 162.628 15.2266C163.615 14.4728 164.988 14.0959 166.747 14.0959C167.662 14.0959 168.578 14.2215 169.493 14.4728C170.408 14.7061 171.162 15.0202 171.755 15.4151L170.92 16.9497C169.753 16.142 168.362 15.7382 166.747 15.7382C165.527 15.7382 164.602 15.9536 163.974 16.3843C163.364 16.8151 163.059 17.3804 163.059 18.0804C163.059 18.6189 163.229 19.0496 163.57 19.3727C163.929 19.6958 164.369 19.9381 164.889 20.0996C165.41 20.2432 166.128 20.3958 167.043 20.5573C168.174 20.7727 169.08 20.9881 169.762 21.2034C170.444 21.4188 171.028 21.7868 171.512 22.3073C171.997 22.8278 172.239 23.5457 172.239 24.4611C172.239 25.6995 171.719 26.6867 170.678 27.4225C169.655 28.1405 168.228 28.4994 166.397 28.4994Z" fill="white"/>
</g>
<defs>
<linearGradient id="paint0_linear_67_14089" x1="0.742986" y1="40.7852" x2="28.9659" y2="-3.57854" gradientUnits="userSpaceOnUse">
<stop stop-color="#0194FF"/>
<stop offset="1" stop-color="#1FF8D1"/>
</linearGradient>
<linearGradient id="paint1_linear_67_14089" x1="14.4228" y1="36.2973" x2="37.0185" y2="1.44236" gradientUnits="userSpaceOnUse">
<stop stop-color="#0194FF"/>
<stop offset="1" stop-color="#1FF8D1"/>
</linearGradient>
<clipPath id="clip0_67_14089">
<rect width="172" height="36" fill="white" transform="translate(0.96167 0.96167)"/>
</clipPath>
</defs>
</svg>
