<svg width="16" height="16" viewBox="0 0 16 16" fill="none" xmlns="http://www.w3.org/2000/svg">
<path d="M1.66706 8.66668H5.66706M10.3337 8.66668H14.3337M8.0004 4.66668V14M8.0004 4.66668C8.92087 4.66668 9.66706 3.92048 9.66706 3.00001M8.0004 4.66668C7.07992 4.66668 6.33373 3.92049 6.33373 3.00001M2.66706 14L13.3337 14M2.66706 3.00002L6.33373 3.00001M6.33373 3.00001C6.33373 2.07954 7.07992 1.33334 8.0004 1.33334C8.92087 1.33334 9.66706 2.07953 9.66706 3.00001M9.66706 3.00001L13.3337 3.00001M5.92069 9.55758C5.65356 10.5804 4.7458 11.3333 3.66706 11.3333C2.58833 11.3333 1.68057 10.5804 1.41344 9.55758C1.39161 9.47401 1.3807 9.43222 1.37965 9.26526C1.379 9.16291 1.41704 8.92692 1.44981 8.82996C1.50327 8.67177 1.56114 8.58249 1.67687 8.40393L3.66706 5.33334L5.65726 8.40393C5.77299 8.58249 5.83086 8.67177 5.88432 8.82996C5.91709 8.92692 5.95513 9.16291 5.95448 9.26526C5.95343 9.43222 5.94252 9.47401 5.92069 9.55758ZM14.5874 9.55758C14.3202 10.5804 13.4125 11.3333 12.3337 11.3333C11.255 11.3333 10.3472 10.5804 10.0801 9.55758C10.0583 9.47401 10.0474 9.43222 10.0463 9.26526C10.0457 9.16291 10.0837 8.92692 10.1165 8.82996C10.1699 8.67177 10.2278 8.58249 10.3435 8.40393L12.3337 5.33334L14.3239 8.40393C14.4397 8.58249 14.4975 8.67177 14.551 8.82996C14.5838 8.92692 14.6218 9.16291 14.6211 9.26526C14.6201 9.43222 14.6092 9.47401 14.5874 9.55758Z" stroke="#A5A5A6" stroke-width="1.33333" stroke-linecap="round" stroke-linejoin="round"/>
</svg>
