<svg width="24" height="24" viewBox="0 0 24 24" fill="none" xmlns="http://www.w3.org/2000/svg">
<g clip-path="url(#clip0_3783_188)">
<path d="M12.0856 23.9999C18.5831 23.9999 23.8503 18.6273 23.8503 12C23.8503 5.37256 18.5831 0 12.0856 0C5.58816 0 0.320923 5.37256 0.320923 12C0.320923 18.6273 5.58816 23.9999 12.0856 23.9999Z" fill="black"/>
<path fill-rule="evenodd" clip-rule="evenodd" d="M6.77196 5.91217C6.87008 5.81607 6.99963 5.76001 7.13309 5.76001H19.5923C19.82 5.76001 19.9338 6.04028 19.7729 6.20444L17.3116 8.71489C17.2174 8.81099 17.0879 8.86705 16.9505 8.86705H4.4913C4.26362 8.86705 4.14978 8.58678 4.31073 8.42262L6.77196 5.91217ZM6.77196 15.285C6.86617 15.1889 6.99568 15.1329 7.13309 15.1329H19.5923C19.82 15.1329 19.9338 15.4132 19.7729 15.5774L17.3116 18.0878C17.2174 18.1839 17.0879 18.2399 16.9505 18.2399H4.4913C4.26362 18.2399 4.14978 17.9596 4.31073 17.7955L6.77196 15.285ZM16.9505 10.4166C17.0879 10.4166 17.2174 10.4727 17.3116 10.5687L19.7729 13.0792C19.9338 13.2434 19.82 13.5236 19.5923 13.5236H7.13309C6.99568 13.5236 6.86617 13.4676 6.77196 13.3715L4.31073 10.861C4.14978 10.6969 4.26362 10.4166 4.4913 10.4166H16.9505Z" fill="url(#paint0_linear_3783_188)"/>
</g>
<defs>
<linearGradient id="paint0_linear_3783_188" x1="16.5049" y1="3.25006" x2="7.61073" y2="19.9519" gradientUnits="userSpaceOnUse">
<stop stop-color="#00FFA3"/>
<stop offset="1" stop-color="#DC1FFF"/>
</linearGradient>
<clipPath id="clip0_3783_188">
<rect width="24" height="24" fill="white"/>
</clipPath>
</defs>
</svg>
