<svg width="24" height="24" viewBox="0 0 24 24" fill="none" xmlns="http://www.w3.org/2000/svg">
<path d="M18 4L21 7L18 10M18 20L21 17L18 14" stroke="#A5A5A6" stroke-width="2" stroke-linecap="round" stroke-linejoin="round"/>
<path d="M3 7.00001H6C7.32608 7.00001 8.59785 7.52679 9.53553 8.46447C10.4732 9.40215 11 10.6739 11 12C11 13.3261 11.5268 14.5979 12.4645 15.5355C13.4021 16.4732 14.6739 17 16 17H21M21 7.00001H16C14.9179 6.99841 13.8647 7.34946 13 8.00001M9 16C8.13506 16.6502 7.08204 17.0012 6 17H3" stroke="#A5A5A6" stroke-width="2" stroke-linecap="round" stroke-linejoin="round"/>
</svg>
