<svg width="24" height="24" viewBox="0 0 24 24" fill="none" xmlns="http://www.w3.org/2000/svg">
<path d="M15.1998 15.1998V17.4397C15.1998 18.3358 15.1998 18.7838 15.0254 19.126C14.872 19.4271 14.6272 19.6718 14.3261 19.8252C13.9839 19.9996 13.5358 19.9996 12.6397 19.9996H6.55939C5.66326 19.9996 5.2152 19.9996 4.87292 19.8252C4.57185 19.6718 4.32707 19.4271 4.17367 19.126C3.99927 18.7838 3.99927 18.3358 3.99927 17.4397V11.36C3.99927 10.464 3.99927 10.016 4.17367 9.67373C4.32707 9.37268 4.57185 9.12793 4.87292 8.97454C5.2152 8.80015 5.66326 8.80015 6.55939 8.80015H8.79949M11.3596 15.1998H17.4399C18.336 15.1998 18.7841 15.1998 19.1263 15.0255C19.4274 14.8721 19.6722 14.6273 19.8256 14.3263C20 13.984 20 13.536 20 12.64V6.56026C20 5.66422 20 5.2162 19.8256 4.87396C19.6722 4.57292 19.4274 4.32816 19.1263 4.17477C18.7841 4.00039 18.336 4.00039 17.4399 4.00039H11.3596C10.4635 4.00039 10.0154 4.00039 9.67314 4.17477C9.37207 4.32816 9.12729 4.57292 8.97389 4.87396C8.79949 5.2162 8.79949 5.66422 8.79949 6.56026V12.64C8.79949 13.536 8.79949 13.984 8.97389 14.3263C9.12729 14.6273 9.37207 14.8721 9.67314 15.0255C10.0154 15.1998 10.4635 15.1998 11.3596 15.1998Z" stroke="#2ED3B7" stroke-width="1.6" stroke-linecap="round" stroke-linejoin="round"/>
</svg>
